<svg width="160" height="160" viewBox="0 0 160 160" fill="none" xmlns="http://www.w3.org/2000/svg">
<path d="M80 160C124.183 160 160 124.183 160 80C160 35.8172 124.183 0 80 0C35.8172 0 0 35.8172 0 80C0 124.183 35.8172 160 80 160Z" fill="url(#paint0_linear_5251_36042)"/>
<path d="M128 160H32V56.5335C36.5248 56.5284 40.8628 54.7287 44.0623 51.5292C47.2619 48.3296 49.0616 43.9916 49.0667 39.4668H110.933C110.929 41.7083 111.368 43.9284 112.227 45.9988C113.086 48.0692 114.347 49.9488 115.937 51.5286C117.517 53.1192 119.397 54.3805 121.467 55.2396C123.538 56.0987 125.758 56.5384 128 56.5335V160Z" fill="white"/>
<path d="M80 108.801C94.1385 108.801 105.6 97.3391 105.6 83.2006C105.6 69.0621 94.1385 57.6006 80 57.6006C65.8615 57.6006 54.4 69.0621 54.4 83.2006C54.4 97.3391 65.8615 108.801 80 108.801Z" fill="#4285F4"/>
<path d="M89.051 95.2689L80 86.2179L70.949 95.2689L67.932 92.2519L76.983 83.201L67.932 74.15L70.949 71.133L80 80.184L89.051 71.133L92.068 74.15L83.017 83.201L92.068 92.2519L89.051 95.2689Z" fill="white"/>
<path d="M93.8667 115.2H66.1333C64.366 115.2 62.9333 116.633 62.9333 118.4C62.9333 120.168 64.366 121.6 66.1333 121.6H93.8667C95.634 121.6 97.0667 120.168 97.0667 118.4C97.0667 116.633 95.634 115.2 93.8667 115.2Z" fill="#DFEAFB"/>
<path d="M103.467 128H56.5333C54.766 128 53.3333 129.433 53.3333 131.2C53.3333 132.967 54.766 134.4 56.5333 134.4H103.467C105.234 134.4 106.667 132.967 106.667 131.2C106.667 129.433 105.234 128 103.467 128Z" fill="#DFEAFB"/>
<defs>
<linearGradient id="paint0_linear_5251_36042" x1="80" y1="0" x2="80" y2="160" gradientUnits="userSpaceOnUse">
<stop stop-color="#E3ECFA"/>
<stop offset="1" stop-color="#DAE7FF"/>
</linearGradient>
</defs>
</svg>
